<svg id="Layer_1" xmlns="http://www.w3.org/2000/svg" viewBox="0 0 256 256"><style>.st1{fill:#fff}</style><linearGradient id="XMLID_3_" gradientUnits="userSpaceOnUse" x1="221.467" y1="-21.579" x2="34.533" y2="277.579"><stop offset="0" stop-color="#1066b1"/><stop offset="1" stop-color="#7c3b97"/></linearGradient><path id="XMLID_2_" fill="url(#XMLID_3_)" d="M0 0h256v256H0z"/><g id="XMLID_28_"><g id="XMLID_21_"><path id="XMLID_22_" class="st1" d="M95 83.2l3-10.3 8.6-6.5-10.3-3-6.5-8.6-3 10.3-8.6 6.5 10.3 3 6.5 8.6zm57.3 19.1c2.6-.5 4.4-3 3.9-5.6l-1.5-8.3 21.8-35.1c1.4-2.2.8-5-1.3-6.5l-6.8-4.7c-1.1-.7-2.3-1-3.6-.8-1.1.2-2.2.8-3 1.8l-69.3 89.6-12.7 2.3c-2.6.5-4.4 3-3.9 5.6l2 10.9-29.2 37.7c-3.4 4.4-2.4 10.7 2.1 13.8l14.5 10.1c2.2 1.5 4.8 2 7.2 1.6 2.6-.5 5-2 6.5-4.4l66.2-106.7 7.1-1.3zM71.1 206.2l-16-12L165 54.2l-93.9 152zm-15.4-96.3l5.1-17.2 14.4-10.8L58 76.8 47.1 62.5 42 79.7 27.7 90.5l17.2 5.1 10.8 14.3zm-5.1-28.5c2.6-.5 5.1 1.3 5.6 3.9.5 2.6-1.3 5.1-3.9 5.6s-5.1-1.3-5.6-3.9c-.5-2.6 1.2-5.1 3.9-5.6z"/></g><g id="XMLID_29_"><path id="XMLID_30_" class="st1" d="M206 128.2h-39.9c-1.9 0-3.5 1.6-3.5 3.5v21.1c0 1.9 1.6 3.5 3.5 3.5H206c1.9 0 3.5-1.6 3.5-3.5v-21.1c0-1.9-1.5-3.5-3.5-3.5zm-.2 24.5h-39.6v-20.8h39.6v20.8zm17.8-15.1h4.7v-16.4c0-3.9-3.2-7-7-7h-70.4c-3.9 0-7 3.2-7 7v16.4h4.7c2.6 0 4.7 2.1 4.7 4.7s-2.1 4.7-4.7 4.7h-4.7v16.4c0 3.9 3.2 7 7 7h70.4c3.9 0 7-3.2 7-7V147h-4.7c-2.6 0-4.7-2.1-4.7-4.7s2.1-4.7 4.7-4.7zm0 14.1v11.7c0 1.3-1.1 2.3-2.3 2.3h-70.4c-1.3 0-2.3-1.1-2.3-2.3v-11.7c5.2 0 9.4-4.2 9.4-9.4s-4.2-9.4-9.4-9.4v-11.7c0-1.3 1.1-2.3 2.3-2.3h70.4c1.3 0 2.3 1.1 2.3 2.3v11.7c-5.2 0-9.4 4.2-9.4 9.4s4.2 9.4 9.4 9.4z"/></g><g id="XMLID_122_"><path id="XMLID_123_" class="st1" d="M194 136.2c.2-.2.2-.4 0-.6l-1.1-1.1c-.2-.2-.4-.2-.6 0l-14.1 14.1c-.2.2-.2.4 0 .6l1.1 1.1c.2.2.4.2.6 0l13-13 1.1-1.1zm-12.7 4.6c.8 0 1.6-.3 2.3-.9 1.2-1.2 1.2-3.3 0-4.5-.6-.6-1.4-.9-2.3-.9-.8 0-1.6.3-2.3.9-1.2 1.2-1.2 3.3 0 4.5.7.6 1.5.9 2.3.9zm-1.1-4.3c.3-.3.7-.5 1.1-.5s.8.2 1.1.5c.6.6.6 1.6 0 2.3-.3.3-.7.5-1.1.5s-.8-.2-1.1-.5c-.6-.7-.6-1.7 0-2.3zm10.7 7.5c-.8 0-1.6.3-2.3.9-1.2 1.2-1.2 3.3 0 4.5.6.6 1.4.9 2.3.9.8 0 1.6-.3 2.3-.9 1.2-1.2 1.2-3.3 0-4.5-.6-.6-1.4-.9-2.3-.9zm1.2 4.3c-.3.3-.7.5-1.1.5-.4 0-.8-.2-1.1-.5-.6-.6-.6-1.6 0-2.3.3-.3.7-.5 1.1-.5.4 0 .8.2 1.1.5.6.7.6 1.7 0 2.3z"/></g></g></svg>